<svg class="marks" width="240" height="120" viewBox="0 0 240 120" version="1.1" xmlns="http://www.w3.org/2000/svg" xmlns:xlink="http://www.w3.org/1999/xlink"><g transform="translate(0,35)"><g class="mark-group role-frame root"><g transform="translate(0,0)"><path class="background" d="M0,0h240v85h-240Z" style="fill: none;"></path><g><g class="mark-group role-axis"><g transform="translate(0.5,0.5)"><path class="background" d="M0,0h0v0h0Z" style="pointer-events: none; fill: none;"></path><g><g class="mark-rule role-axis-grid" style="pointer-events: none;"><line transform="translate(20,0)" x2="0" y2="85" style="fill: none; stroke: #ddd; stroke-width: 1; stroke-dasharray: 2,2; opacity: 1;"></line><line transform="translate(60,0)" x2="0" y2="85" style="fill: none; stroke: #ddd; stroke-width: 1; stroke-dasharray: 2,2; opacity: 1;"></line><line transform="translate(100,0)" x2="0" y2="85" style="fill: none; stroke: #ddd; stroke-width: 1; stroke-dasharray: 2,2; opacity: 1;"></line><line transform="translate(140,0)" x2="0" y2="85" style="fill: none; stroke: #ddd; stroke-width: 1; stroke-dasharray: 2,2; opacity: 1;"></line><line transform="translate(180,0)" x2="0" y2="85" style="fill: none; stroke: #ddd; stroke-width: 1; stroke-dasharray: 2,2; opacity: 1;"></line><line transform="translate(220,0)" x2="0" y2="85" style="fill: none; stroke: #ddd; stroke-width: 1; stroke-dasharray: 2,2; opacity: 1;"></line></g></g><path class="foreground" d="" style="pointer-events: none; display: none; fill: none;"></path></g></g><g class="mark-rect role-mark layer_0_layer_0_marks"></g><g class="mark-rect role-mark layer_0_layer_1_marks"></g><g class="mark-symbol role-mark layer_1_layer_0_marks"><path transform="translate(188,42.5)" d="M3.872983346207417,0A3.872983346207417,3.872983346207417,0,1,1,-3.872983346207417,0A3.872983346207417,3.872983346207417,0,1,1,3.872983346207417,0" style="fill: black; stroke-width: 2; opacity: 0.7;"></path><path transform="translate(164,42.5)" d="M3.872983346207417,0A3.872983346207417,3.872983346207417,0,1,1,-3.872983346207417,0A3.872983346207417,3.872983346207417,0,1,1,3.872983346207417,0" style="fill: black; stroke-width: 2; opacity: 0.7;"></path><path transform="translate(132,42.5)" d="M3.872983346207417,0A3.872983346207417,3.872983346207417,0,1,1,-3.872983346207417,0A3.872983346207417,3.872983346207417,0,1,1,3.872983346207417,0" style="fill: black; stroke-width: 2; opacity: 0.7;"></path><path transform="translate(124.00000000000001,42.5)" d="M3.872983346207417,0A3.872983346207417,3.872983346207417,0,1,1,-3.872983346207417,0A3.872983346207417,3.872983346207417,0,1,1,3.872983346207417,0" style="fill: black; stroke-width: 2; opacity: 0.7;"></path><path transform="translate(116,42.5)" d="M3.872983346207417,0A3.872983346207417,3.872983346207417,0,1,1,-3.872983346207417,0A3.872983346207417,3.872983346207417,0,1,1,3.872983346207417,0" style="fill: black; stroke-width: 2; opacity: 0.7;"></path><path transform="translate(116,42.5)" d="M3.872983346207417,0A3.872983346207417,3.872983346207417,0,1,1,-3.872983346207417,0A3.872983346207417,3.872983346207417,0,1,1,3.872983346207417,0" style="fill: black; stroke-width: 2; opacity: 0.7;"></path><path transform="translate(108,42.5)" d="M3.872983346207417,0A3.872983346207417,3.872983346207417,0,1,1,-3.872983346207417,0A3.872983346207417,3.872983346207417,0,1,1,3.872983346207417,0" style="fill: black; stroke-width: 2; opacity: 0.7;"></path><path transform="translate(104,42.5)" d="M3.872983346207417,0A3.872983346207417,3.872983346207417,0,1,1,-3.872983346207417,0A3.872983346207417,3.872983346207417,0,1,1,3.872983346207417,0" style="fill: black; stroke-width: 2; opacity: 0.7;"></path><path transform="translate(104,42.5)" d="M3.872983346207417,0A3.872983346207417,3.872983346207417,0,1,1,-3.872983346207417,0A3.872983346207417,3.872983346207417,0,1,1,3.872983346207417,0" style="fill: black; stroke-width: 2; opacity: 0.7;"></path><path transform="translate(88,42.5)" d="M3.872983346207417,0A3.872983346207417,3.872983346207417,0,1,1,-3.872983346207417,0A3.872983346207417,3.872983346207417,0,1,1,3.872983346207417,0" style="fill: black; stroke-width: 2; opacity: 0.7;"></path><path transform="translate(48,42.5)" d="M3.872983346207417,0A3.872983346207417,3.872983346207417,0,1,1,-3.872983346207417,0A3.872983346207417,3.872983346207417,0,1,1,3.872983346207417,0" style="fill: black; stroke-width: 2; opacity: 0.7;"></path><path transform="translate(44,42.5)" d="M3.872983346207417,0A3.872983346207417,3.872983346207417,0,1,1,-3.872983346207417,0A3.872983346207417,3.872983346207417,0,1,1,3.872983346207417,0" style="fill: black; stroke-width: 2; opacity: 0.7;"></path><path transform="translate(44,42.5)" d="M3.872983346207417,0A3.872983346207417,3.872983346207417,0,1,1,-3.872983346207417,0A3.872983346207417,3.872983346207417,0,1,1,3.872983346207417,0" style="fill: black; stroke-width: 2; opacity: 0.7;"></path><path transform="translate(40,42.5)" d="M3.872983346207417,0A3.872983346207417,3.872983346207417,0,1,1,-3.872983346207417,0A3.872983346207417,3.872983346207417,0,1,1,3.872983346207417,0" style="fill: black; stroke-width: 2; opacity: 0.7;"></path><path transform="translate(36,42.5)" d="M3.872983346207417,0A3.872983346207417,3.872983346207417,0,1,1,-3.872983346207417,0A3.872983346207417,3.872983346207417,0,1,1,3.872983346207417,0" style="fill: black; stroke-width: 2; opacity: 0.7;"></path><path transform="translate(36,42.5)" d="M3.872983346207417,0A3.872983346207417,3.872983346207417,0,1,1,-3.872983346207417,0A3.872983346207417,3.872983346207417,0,1,1,3.872983346207417,0" style="fill: black; stroke-width: 2; opacity: 0.7;"></path><path transform="translate(32,42.5)" d="M3.872983346207417,0A3.872983346207417,3.872983346207417,0,1,1,-3.872983346207417,0A3.872983346207417,3.872983346207417,0,1,1,3.872983346207417,0" style="fill: black; stroke-width: 2; opacity: 0.7;"></path><path transform="translate(28,42.5)" d="M3.872983346207417,0A3.872983346207417,3.872983346207417,0,1,1,-3.872983346207417,0A3.872983346207417,3.872983346207417,0,1,1,3.872983346207417,0" style="fill: black; stroke-width: 2; opacity: 0.7;"></path></g><g class="mark-symbol role-mark layer_1_layer_1_marks"><path transform="translate(164,42.5)" d="M3.872983346207417,0A3.872983346207417,3.872983346207417,0,1,1,-3.872983346207417,0A3.872983346207417,3.872983346207417,0,1,1,3.872983346207417,0" style="fill: firebrick; stroke-width: 2; opacity: 0.7;"></path></g><g class="mark-text role-mark layer_2_layer_0_layer_0_marks"><text text-anchor="middle" transform="translate(120,-27)" style="font-family: sans-serif; font-size: 10px; font-weight: bold; fill: black;">Kennedy voted in the majority 76% of the time.</text></g><g class="mark-text role-mark layer_4_layer_0_marks"><text text-anchor="start" transform="translate(164,42.5) rotate(45) translate(7,6)" style="font-family: sans-serif; font-size: 11px; fill: black;">Kennedy</text></g><g class="mark-text role-mark layer_4_layer_1_marks"></g><g class="mark-text role-mark layer_4_layer_2_marks"></g><g class="mark-text role-mark layer_4_layer_3_marks"></g><g class="mark-text role-mark layer_4_layer_4_marks"></g><g class="mark-text role-mark layer_4_layer_5_marks"></g><g class="mark-text role-mark layer_4_layer_6_marks"></g><g class="mark-text role-mark layer_4_layer_7_marks"></g><g class="mark-text role-mark layer_4_layer_8_marks"></g><g class="mark-text role-mark layer_4_layer_9_marks"></g><g class="mark-text role-mark layer_4_layer_10_marks"></g><g class="mark-text role-mark layer_4_layer_11_marks"></g><g class="mark-text role-mark layer_4_layer_12_marks"></g><g class="mark-text role-mark layer_4_layer_13_marks"></g><g class="mark-text role-mark layer_4_layer_14_marks"></g><g class="mark-text role-mark layer_4_layer_15_marks"></g><g class="mark-text role-mark layer_4_layer_16_marks"></g><g class="mark-text role-mark layer_4_layer_17_marks"></g><g class="mark-text role-mark layer_4_layer_18_marks"></g><g class="mark-text role-mark layer_4_layer_19_marks"></g><g class="mark-text role-mark layer_4_layer_20_marks"></g><g class="mark-text role-mark layer_4_layer_21_marks"></g><g class="mark-text role-mark layer_4_layer_22_marks"></g><g class="mark-text role-mark layer_4_layer_23_marks"></g><g class="mark-text role-mark layer_4_layer_24_marks"></g><g class="mark-text role-mark layer_4_layer_25_marks"></g><g class="mark-text role-mark layer_4_layer_26_marks"></g><g class="mark-group role-axis"><g transform="translate(0.5,0.5)"><path class="background" d="M0,0h0v0h0Z" style="pointer-events: none; fill: none;"></path><g><g class="mark-text role-axis-label" style="pointer-events: none;"><text text-anchor="middle" transform="translate(20,-5)" style="font-family: sans-serif; font-size: 16px; fill: #000; opacity: 1;">40</text><text text-anchor="middle" transform="translate(60,-5)" style="font-family: sans-serif; font-size: 16px; fill: #000; opacity: 1;">50</text><text text-anchor="middle" transform="translate(100,-5)" style="font-family: sans-serif; font-size: 16px; fill: #000; opacity: 1;">60</text><text text-anchor="middle" transform="translate(140,-5)" style="font-family: sans-serif; font-size: 16px; fill: #000; opacity: 1;">70</text><text text-anchor="middle" transform="translate(180,-5)" style="font-family: sans-serif; font-size: 16px; fill: #000; opacity: 1;">80</text><text text-anchor="middle" transform="translate(220,-5)" style="font-family: sans-serif; font-size: 16px; fill: #000; opacity: 1;">90</text></g></g><path class="foreground" d="" style="pointer-events: none; display: none; fill: none;"></path></g></g><g class="mark-group role-axis"><g transform="translate(0.5,0.5)"><path class="background" d="M0,0h0v0h0Z" style="pointer-events: none; fill: none;"></path><g><g class="mark-text role-axis-label" style="pointer-events: none;"></g></g><path class="foreground" d="" style="pointer-events: none; display: none; fill: none;"></path></g></g></g><path class="foreground" d="" style="display: none; fill: none;"></path></g></g></g></svg>