<svg class="marks" width="240" height="120" viewBox="0 0 240 120" version="1.1" xmlns="http://www.w3.org/2000/svg" xmlns:xlink="http://www.w3.org/1999/xlink"><g transform="translate(20,9)"><g class="mark-group role-frame root"><g transform="translate(0,0)"><path class="background" d="M0,0h220v105h-220Z" style="fill: none;"></path><g><g class="mark-group role-scope layer_0_layer_0_pathgroup"><g transform="translate(0,0)"><path class="background" d="M0,0h220v105h-220Z" style="fill: none;"></path><g><g class="mark-line role-mark layer_0_layer_0_marks"><path d="M0,99.16666666666666L4.888888888888889,100.33333333333334L9.777777777777779,99.16666666666666L14.666666666666666,72.33333333333333L19.555555555555557,84L24.444444444444443,86.33333333333333L29.333333333333332,99.16666666666666L34.22222222222222,100.33333333333334L39.111111111111114,94.5L44,94.5L48.888888888888886,102.66666666666666L53.77777777777778,105L58.666666666666664,105L63.55555555555555,92.16666666666667L68.44444444444444,91L73.33333333333333,98L78.22222222222223,87.5L83.11111111111111,101.5M97.77777777777777,92.16666666666667L102.66666666666667,87.5L107.55555555555556,93.33333333333333L112.44444444444443,102.66666666666666L117.33333333333333,93.33333333333333L122.22222222222223,96.83333333333334L127.1111111111111,91L132,54.83333333333333L136.88888888888889,35.00000000000001L141.7777777777778,38.5L146.66666666666666,61.833333333333336L151.55555555555554,26.833333333333332L156.44444444444446,42L161.33333333333331,33.83333333333333L166.22222222222223,44.333333333333336L171.11111111111111,-5.833333333333336L176,13.999999999999996L180.88888888888889,57.16666666666667L185.77777777777777,45.5L190.66666666666669,37.33333333333333L195.55555555555554,36.166666666666664L200.44444444444443,65.33333333333333" style="fill: none; stroke: #A72CF0; stroke-width: 2;"></path></g></g><path class="foreground" d="" style="display: none; fill: none;"></path></g><g transform="translate(0,0)"><path class="background" d="M0,0h220v105h-220Z" style="fill: none;"></path><g><g class="mark-line role-mark layer_0_layer_0_marks"><path d="M0,80.5L4.888888888888889,91L9.777777777777779,75.83333333333333L14.666666666666666,103.83333333333334L19.555555555555557,79.33333333333333L24.444444444444443,101.5L29.333333333333332,102.66666666666666L34.22222222222222,77L39.111111111111114,82.83333333333333L44,81.66666666666667L48.888888888888886,72.33333333333333L53.77777777777778,81.66666666666667L58.666666666666664,86.33333333333333L63.55555555555555,85.16666666666667L68.44444444444444,79.33333333333333L73.33333333333333,86.33333333333333L78.22222222222223,47.833333333333336L83.11111111111111,44.333333333333336L88,22.166666666666668L92.88888888888889,40.83333333333333L97.77777777777777,65.33333333333333L102.66666666666667,57.16666666666667L107.55555555555556,53.666666666666664L112.44444444444443,47.833333333333336L117.33333333333333,52.5L122.22222222222223,47.833333333333336L127.1111111111111,19.833333333333332L132,37.33333333333333L136.88888888888889,40.83333333333333L141.7777777777778,70.00000000000001L146.66666666666666,78.16666666666667L151.55555555555554,70.00000000000001L156.44444444444446,77L161.33333333333331,67.66666666666666L166.22222222222223,65.33333333333333L171.11111111111111,65.33333333333333L176,73.5L180.88888888888889,40.83333333333333L185.77777777777777,28.000000000000007L190.66666666666669,20.999999999999996L195.55555555555554,58.333333333333336L200.44444444444443,40.83333333333333" style="fill: none; stroke: #FC5620; stroke-width: 2;"></path></g></g><path class="foreground" d="" style="display: none; fill: none;"></path></g><g transform="translate(0,0)"><path class="background" d="M0,0h220v105h-220Z" style="fill: none;"></path><g><g class="mark-line role-mark layer_0_layer_0_marks"><path d="M0,96.83333333333334L4.888888888888889,89.83333333333334L9.777777777777779,100.33333333333334L14.666666666666666,101.5L19.555555555555557,101.5L24.444444444444443,100.33333333333334L29.333333333333332,95.66666666666667L34.22222222222222,105L39.111111111111114,102.66666666666666L44,105L48.888888888888886,100.33333333333334L53.77777777777778,105L58.666666666666664,103.83333333333334L63.55555555555555,100.33333333333334L68.44444444444444,105L73.33333333333333,105L78.22222222222223,95.66666666666667L83.11111111111111,96.83333333333334L88,103.83333333333334L92.88888888888889,99.16666666666666L97.77777777777777,99.16666666666666L102.66666666666667,100.33333333333334L107.55555555555556,103.83333333333334L112.44444444444443,93.33333333333333L117.33333333333333,93.33333333333333L122.22222222222223,94.5L127.1111111111111,94.5L132,100.33333333333334L136.88888888888889,95.66666666666667L141.7777777777778,100.33333333333334L146.66666666666666,99.16666666666666L151.55555555555554,100.33333333333334L156.44444444444446,94.5L161.33333333333331,91L166.22222222222223,58.333333333333336L171.11111111111111,82.83333333333333L176,72.33333333333333L180.88888888888889,80.5L185.77777777777777,70.00000000000001L190.66666666666669,92.16666666666667L195.55555555555554,95.66666666666667L200.44444444444443,92.16666666666667" style="fill: none; stroke: #23B1F9; stroke-width: 2;"></path></g></g><path class="foreground" d="" style="display: none; fill: none;"></path></g></g><g class="mark-text role-mark layer_10_layer_0_layer_0_marks"></g><g class="mark-text role-mark layer_10_layer_0_layer_1_marks"></g><g class="mark-text role-mark layer_10_layer_0_layer_2_marks"></g><g class="mark-text role-mark layer_10_layer_0_layer_3_marks"></g><g class="mark-text role-mark layer_10_layer_0_layer_4_marks"></g><g class="mark-text role-mark layer_10_layer_0_layer_5_marks"></g><g class="mark-text role-mark layer_10_layer_0_layer_6_marks"></g><g class="mark-text role-mark layer_10_layer_0_layer_7_marks"></g><g class="mark-rule role-mark layer_11_layer_0_marks"></g><g class="mark-group role-legend"><g transform="translate(-3,-3)"><path class="background" d="M0,0h57v37h-57Z" style="pointer-events: none; fill: none;"></path><g><g class="mark-group role-legend-entry"><g transform="translate(0,0)"><path class="background" d="M0,0h0v0h0Z" style="pointer-events: none; fill: none;"></path><g><g class="mark-group role-scope"><g transform="translate(0,0)"><path class="background" d="M0,0h56.5615234375v11h-56.5615234375Z" style="pointer-events: none; fill: none; opacity: 1;"></path><g><g class="mark-symbol role-legend-symbol" style="pointer-events: none;"><path transform="translate(6,6)" d="M-5,0L5,0" style="fill: none; stroke: #A72CF0; stroke-width: 1.5; opacity: 1;"></path></g><g class="mark-text role-legend-label" style="pointer-events: none;"><text text-anchor="start" transform="translate(16,9)" style="font-family: sans-serif; font-size: 10px; fill: #000; opacity: 1;">yahoo</text></g></g><path class="foreground" d="" style="pointer-events: none; display: none; fill: none;"></path></g><g transform="translate(0,13)"><path class="background" d="M0,0h56.5615234375v11h-56.5615234375Z" style="pointer-events: none; fill: none; opacity: 1;"></path><g><g class="mark-symbol role-legend-symbol" style="pointer-events: none;"><path transform="translate(6,6)" d="M-5,0L5,0" style="fill: none; stroke: #FC5620; stroke-width: 1.5; opacity: 1;"></path></g><g class="mark-text role-legend-label" style="pointer-events: none;"><text text-anchor="start" transform="translate(16,9)" style="font-family: sans-serif; font-size: 10px; fill: #000; opacity: 1;">google</text></g></g><path class="foreground" d="" style="pointer-events: none; display: none; fill: none;"></path></g><g transform="translate(0,26)"><path class="background" d="M0,0h56.5615234375v11h-56.5615234375Z" style="pointer-events: none; fill: none; opacity: 1;"></path><g><g class="mark-symbol role-legend-symbol" style="pointer-events: none;"><path transform="translate(6,6)" d="M-5,0L5,0" style="fill: none; stroke: #23B1F9; stroke-width: 1.5; opacity: 1;"></path></g><g class="mark-text role-legend-label" style="pointer-events: none;"><text text-anchor="start" transform="translate(16,9)" style="font-family: sans-serif; font-size: 10px; fill: #000; opacity: 1;">microsoft</text></g></g><path class="foreground" d="" style="pointer-events: none; display: none; fill: none;"></path></g></g></g><path class="foreground" d="" style="pointer-events: none; display: none; fill: none;"></path></g></g></g><path class="foreground" d="" style="pointer-events: none; display: none; fill: none;"></path></g></g><g class="mark-group role-axis"><g transform="translate(0.5,105.5)"><path class="background" d="M0,0h0v0h0Z" style="pointer-events: none; fill: none;"></path><g><g class="mark-rule role-axis-tick" style="pointer-events: none;"><line transform="translate(0,0)" x2="0" y2="5" style="fill: none; stroke: #888; stroke-width: 1; opacity: 1;"></line><line transform="translate(49,0)" x2="0" y2="5" style="fill: none; stroke: #888; stroke-width: 1; opacity: 1;"></line><line transform="translate(98,0)" x2="0" y2="5" style="fill: none; stroke: #888; stroke-width: 1; opacity: 1;"></line><line transform="translate(147,0)" x2="0" y2="5" style="fill: none; stroke: #888; stroke-width: 1; opacity: 1;"></line><line transform="translate(196,0)" x2="0" y2="5" style="fill: none; stroke: #888; stroke-width: 1; opacity: 1;"></line></g></g><path class="foreground" d="" style="pointer-events: none; display: none; fill: none;"></path></g></g><g class="mark-group role-axis"><g transform="translate(-19.5,0.5)"><path class="background" d="M0,0h0v0h0Z" style="pointer-events: none; fill: none;"></path><g></g><path class="foreground" d="" style="pointer-events: none; display: none; fill: none;"></path></g></g></g><path class="foreground" d="" style="display: none; fill: none;"></path></g></g></g></svg>